<svg width="21" height="21" viewBox="0 0 21 21" fill="none" xmlns="http://www.w3.org/2000/svg">
<g clip-path="url(#clip0)">
<path d="M17.1344 8.45459H9.63444C8.71397 8.45459 7.96777 9.20078 7.96777 10.1213V17.6213C7.96777 18.5417 8.71397 19.2879 9.63444 19.2879H17.1344C18.0549 19.2879 18.8011 18.5417 18.8011 17.6213V10.1213C18.8011 9.20078 18.0549 8.45459 17.1344 8.45459Z" stroke="#3485FF" stroke-width="2" stroke-linecap="round" stroke-linejoin="round"/>
<path d="M4.63452 13.4546H3.80119C3.35916 13.4546 2.93524 13.279 2.62268 12.9664C2.31012 12.6539 2.13452 12.2299 2.13452 11.7879V4.28791C2.13452 3.84589 2.31012 3.42196 2.62268 3.1094C2.93524 2.79684 3.35916 2.62125 3.80119 2.62125H11.3012C11.7432 2.62125 12.1671 2.79684 12.4797 3.1094C12.7923 3.42196 12.9679 3.84589 12.9679 4.28791V5.12125" stroke="#3485FF" stroke-width="2" stroke-linecap="round" stroke-linejoin="round"/>
</g>
<defs>
<clipPath id="clip0">
<rect width="20" height="20" fill="white" transform="translate(0.467773 0.95459)"/>
</clipPath>
</defs>
</svg>
