<svg width="53" height="53" viewBox="0 0 53 53" fill="none" xmlns="http://www.w3.org/2000/svg">
<circle cx="26.4678" cy="26.9092" r="26" fill="#3485FF"/>
<path d="M34.4678 35.9092V33.9092C34.4678 32.8483 34.0463 31.8309 33.2962 31.0808C32.5461 30.3306 31.5286 29.9092 30.4678 29.9092H22.4678C21.4069 29.9092 20.3895 30.3306 19.6393 31.0808C18.8892 31.8309 18.4678 32.8483 18.4678 33.9092V35.9092" stroke="#FAFAFA" stroke-width="2" stroke-linecap="round" stroke-linejoin="round"/>
<path d="M26.4678 25.9092C28.6769 25.9092 30.4678 24.1183 30.4678 21.9092C30.4678 19.7 28.6769 17.9092 26.4678 17.9092C24.2586 17.9092 22.4678 19.7 22.4678 21.9092C22.4678 24.1183 24.2586 25.9092 26.4678 25.9092Z" stroke="#FAFAFA" stroke-width="2" stroke-linecap="round" stroke-linejoin="round"/>
</svg>
