<svg width="21" height="21" viewBox="0 0 21 21" fill="none" xmlns="http://www.w3.org/2000/svg">
<path d="M15.4677 7.6213H14.6344V5.95463C14.6344 3.65463 12.7677 1.78796 10.4677 1.78796C8.16769 1.78796 6.30103 3.65463 6.30103 5.95463V7.6213H5.46769C4.55103 7.6213 3.80103 8.3713 3.80103 9.28796V17.6213C3.80103 18.538 4.55103 19.288 5.46769 19.288H15.4677C16.3844 19.288 17.1344 18.538 17.1344 17.6213V9.28796C17.1344 8.3713 16.3844 7.6213 15.4677 7.6213ZM10.4677 15.1213C9.55102 15.1213 8.80102 14.3713 8.80102 13.4546C8.80102 12.538 9.55102 11.788 10.4677 11.788C11.3844 11.788 12.1344 12.538 12.1344 13.4546C12.1344 14.3713 11.3844 15.1213 10.4677 15.1213ZM13.051 7.6213H7.88436V5.95463C7.88436 4.52963 9.04269 3.3713 10.4677 3.3713C11.8927 3.3713 13.051 4.52963 13.051 5.95463V7.6213Z" fill="#A5B0C1"/>
</svg>
